<?xml version="1.0" encoding="utf-8"?>
<!-- Generator: Adobe Illustrator 16.0.4, SVG Export Plug-In . SVG Version: 6.00 Build 0)  -->
<!DOCTYPE svg PUBLIC "-//W3C//DTD SVG 1.1//EN" "http://www.w3.org/Graphics/SVG/1.1/DTD/svg11.dtd">
<svg version="1.1" id="Layer_2" xmlns="http://www.w3.org/2000/svg" xmlns:xlink="http://www.w3.org/1999/xlink" x="0px" y="0px"
	 width="32px" height="32px" viewBox="0 0 32 32" enable-background="new 0 0 32 32" xml:space="preserve">
<polygon fill="#EBFF00" stroke="#000000" stroke-linecap="round" stroke-linejoin="round" stroke-miterlimit="10" points="3.01,8.5 
	9.505,12.25 9.505,19.75 3.01,16 "/>
<polygon fill="#EBFF00" stroke="#000000" stroke-linecap="round" stroke-linejoin="round" stroke-miterlimit="10" points="3.01,16 
	9.505,19.75 9.505,27.25 3.01,23.5 "/>
<polygon fill="#EBFF00" stroke="#000000" stroke-linecap="round" stroke-linejoin="round" stroke-miterlimit="10" points="
	9.505,19.75 16,23.5 16,31 9.505,27.25 "/>
<polygon fill="#EBFF00" stroke="#000000" stroke-linecap="round" stroke-linejoin="round" stroke-miterlimit="10" points="16,8.5 
	22.495,12.25 22.496,19.75 16,16 "/>
<polygon fill="#EBFF00" stroke="#000000" stroke-linecap="round" stroke-linejoin="round" stroke-miterlimit="10" points="
	22.496,19.75 22.496,12.25 28.99,8.5 28.99,16 "/>
<polygon fill="#EBFF00" stroke="#000000" stroke-linecap="round" stroke-linejoin="round" stroke-miterlimit="10" points="
	22.496,27.25 22.496,19.75 28.99,16 28.99,23.5 "/>
<polygon fill="#EBFF00" stroke="#000000" stroke-linecap="round" stroke-linejoin="round" stroke-miterlimit="10" points="
	16.002,31 16.002,23.5 22.496,19.75 22.496,27.25 "/>
<polygon fill="#EBFF00" stroke="#000000" stroke-linecap="round" stroke-linejoin="round" stroke-miterlimit="10" points="
	9.506,19.75 9.506,12.25 16,8.5 16,16 "/>
<polygon fill="#EBFF00" stroke="#000000" stroke-linecap="round" stroke-linejoin="round" stroke-miterlimit="10" points="16,8.5 
	22.496,4.75 16,1 9.505,4.75 "/>
<polygon fill="#EBFF00" stroke="#000000" stroke-linecap="round" stroke-linejoin="round" stroke-miterlimit="10" points="16,23.5 
	22.496,19.75 16,16 9.505,19.75 "/>
<polygon fill="#EBFF00" stroke="#000000" stroke-linecap="round" stroke-linejoin="round" stroke-miterlimit="10" points="
	9.505,12.25 16.001,8.5 9.505,4.75 3.011,8.5 "/>
<polygon fill="#EBFF00" stroke="#000000" stroke-linecap="round" stroke-linejoin="round" stroke-miterlimit="10" points="
	22.496,12.25 28.992,8.5 22.496,4.75 16.001,8.5 "/>
</svg>
