<?xml version="1.0" encoding="utf-8"?>
<!-- Generator: Adobe Illustrator 16.0.4, SVG Export Plug-In . SVG Version: 6.00 Build 0)  -->
<!DOCTYPE svg PUBLIC "-//W3C//DTD SVG 1.1//EN" "http://www.w3.org/Graphics/SVG/1.1/DTD/svg11.dtd">
<svg version="1.1" id="Layer_1" xmlns="http://www.w3.org/2000/svg" xmlns:xlink="http://www.w3.org/1999/xlink" x="0px" y="0px"
	 width="182px" height="102px" viewBox="0 0 182 102" enable-background="new 0 0 182 102" xml:space="preserve">
<g>
	<text transform="matrix(1 0 0 1 101.7148 27.1377)"><tspan x="0" y="0" fill="#231F20" font-family="'Inconsolata-Bold'" font-size="25.1955">Public</tspan><tspan x="0" y="30.234" fill="#231F20" font-family="'Inconsolata-Bold'" font-size="25.1955">Data</tspan><tspan x="0" y="60.47" fill="#231F20" font-family="'Inconsolata-Bold'" font-size="25.1955">Lab</tspan></text>
</g>
<polygon fill="none" stroke="#000000" stroke-linecap="round" stroke-linejoin="round" stroke-miterlimit="10" points="1,26 
	22.651,38.5 22.651,63.5 1,51 "/>
<polygon fill="none" stroke="#000000" stroke-linecap="round" stroke-linejoin="round" stroke-miterlimit="10" points="1,51 
	22.651,63.5 22.651,88.5 1,76 "/>
<polygon fill="none" stroke="#000000" stroke-linecap="round" stroke-linejoin="round" stroke-miterlimit="10" points="22.651,63.5 
	44.301,76 44.301,101 22.651,88.5 "/>
<polygon fill="none" stroke="#000000" stroke-linecap="round" stroke-linejoin="round" stroke-miterlimit="10" points="44.301,26 
	65.952,38.5 65.955,63.5 44.301,51 "/>
<polygon fill="none" stroke="#000000" stroke-linecap="round" stroke-linejoin="round" stroke-miterlimit="10" points="65.955,63.5 
	65.955,38.5 87.602,26 87.602,51 "/>
<polygon fill="none" stroke="#000000" stroke-linecap="round" stroke-linejoin="round" stroke-miterlimit="10" points="65.955,88.5 
	65.955,63.5 87.602,51 87.602,76 "/>
<polygon fill="none" stroke="#000000" stroke-linecap="round" stroke-linejoin="round" stroke-miterlimit="10" points="44.307,101 
	44.307,76 65.955,63.5 65.955,88.5 "/>
<polygon fill="none" stroke="#000000" stroke-linecap="round" stroke-linejoin="round" stroke-miterlimit="10" points="22.654,63.5 
	22.654,38.5 44.301,26 44.301,51 "/>
<polygon fill="none" stroke="#000000" stroke-linecap="round" stroke-linejoin="round" stroke-miterlimit="10" points="44.301,26 
	65.955,13.5 44.301,1 22.651,13.5 "/>
<polygon fill="none" stroke="#000000" stroke-linecap="round" stroke-linejoin="round" stroke-miterlimit="10" points="44.301,76 
	65.955,63.5 44.301,51 22.651,63.5 "/>
<polygon fill="none" stroke="#000000" stroke-linecap="round" stroke-linejoin="round" stroke-miterlimit="10" points="22.651,38.5 
	44.304,26 22.651,13.5 1.003,26 "/>
<polygon fill="none" stroke="#000000" stroke-linecap="round" stroke-linejoin="round" stroke-miterlimit="10" points="65.955,38.5 
	87.608,26 65.955,13.5 44.304,26 "/>
</svg>
